<svg xmlns="http://www.w3.org/2000/svg" width="33.324" height="58.23" viewBox="0 0 33.324 58.23">
  <g id="Group_3299" data-name="Group 3299" transform="translate(-34.184 -639.848)">
    <g id="Group_844" data-name="Group 844" transform="translate(34.184 639.848)">
      <rect id="Rectangle_12960" data-name="Rectangle 12960" width="2.076" height="26.879" transform="translate(3.035 58.23) rotate(-90)" fill="#2a6e6a"/>
      <rect id="Rectangle_12959" data-name="Rectangle 12959" width="2.836" height="2.616" transform="translate(4.034 53.721) rotate(90)" fill="#2a6e6a"/>
      <rect id="Rectangle_12961" data-name="Rectangle 12961" width="2.836" height="2.616" transform="translate(31.67 53.721) rotate(90)" fill="#2a6e6a"/>
      <rect id="Rectangle_12955" data-name="Rectangle 12955" width="53.764" height="29.228" transform="translate(1.992 55.839) rotate(-90)"/>
      <rect id="Rectangle_12909" data-name="Rectangle 12909" width="2.076" height="26.879" transform="translate(29.913 0) rotate(90)" fill="#2a6e6a"/>
      <rect id="Rectangle_12918" data-name="Rectangle 12918" width="1.616" height="1.616" transform="translate(29.555 55.838) rotate(-90)"/>
      <rect id="Rectangle_12920" data-name="Rectangle 12920" width="2.425" height="25.879" transform="translate(3.673 57.455) rotate(-90)"/>
      <rect id="Rectangle_12919" data-name="Rectangle 12919" width="1.616" height="1.616" transform="translate(2.046 55.838) rotate(-90)"/>
      <rect id="Rectangle_12907" data-name="Rectangle 12907" width="50.49" height="2.616" transform="translate(0 53.721) rotate(-90)" fill="#2a6e6a"/>
      <rect id="Rectangle_12958" data-name="Rectangle 12958" width="50.49" height="2.616" transform="translate(30.706 53.721) rotate(-90)" fill="#2a6e6a"/>
      <rect id="Rectangle_12956" data-name="Rectangle 12956" width="1.836" height="2.616" transform="translate(1.419 3.509) rotate(-90)" fill="#2a6e6a"/>
      <rect id="Rectangle_12957" data-name="Rectangle 12957" width="1.836" height="2.616" transform="translate(29.054 3.509) rotate(-90)" fill="#2a6e6a"/>
      <rect id="Rectangle_12915" data-name="Rectangle 12915" width="50.49" height="2.476" transform="translate(0.378 54.181) rotate(-90)"/>
      <rect id="Rectangle_12916" data-name="Rectangle 12916" width="1.616" height="3.457" transform="translate(5.502 2.076) rotate(90)"/>
      <rect id="Rectangle_12917" data-name="Rectangle 12917" width="2.423" height="25.879" transform="translate(29.555 0.461) rotate(90)"/>
      <rect id="Rectangle_12914" data-name="Rectangle 12914" width="1.616" height="2.328" transform="translate(31.223 2.076) rotate(90)"/>
      <rect id="Rectangle_12913" data-name="Rectangle 12913" width="50.49" height="2.132" transform="translate(30.706 54.181) rotate(-90)"/>
    </g>
    <g id="Group_843" data-name="Group 843" transform="translate(34.186 668.781)">
      <path id="Path_817" data-name="Path 817" d="M1620.516-3829.111v.683h-12.253v-.018H1598.04v.021h-10.846v-.683h15v0Z" transform="translate(-1587.194 3829.453)" fill="#2a6e6a"/>
      <path id="Path_814" data-name="Path 814" d="M1620.516-3829.111v.683h-12.253v-.018H1598.04v.021h-10.846v-.683h15v0Z" transform="translate(-1587.194 3829.111)" fill="#47b9b2"/>
    </g>
    <g id="Group_849" data-name="Group 849" transform="translate(44.35 648.146)">
      <g id="Group_842" data-name="Group 842" transform="translate(0.001 33.656)">
        <path id="Path_809" data-name="Path 809" d="M1626.85-3799.111v1.364h-5.022v-.037h-4.189v.042h-4.445v-1.364h6.147v0Z" transform="translate(-1612.91 3799.439)" fill="#2a6e6a"/>
        <path id="Path_813" data-name="Path 813" d="M1600.85-3829.111v1.364h-5.022v-.037h-4.189v.041h-4.445v-1.364h6.147v0Z" transform="translate(-1587.194 3829.111)" fill="#47b9b2"/>
      </g>
      <g id="Group_841" data-name="Group 841" transform="translate(0 0)">
        <path id="Path_816" data-name="Path 816" d="M3732.448-4447.488v-7.032h1.361v7.027h6.148v1.4h-6.144v7.032h-1.364v-7.027H3726.3v-1.4Z" transform="translate(-3726.016 4454.521)" fill="#2a6e6a"/>
        <path id="Path_811" data-name="Path 811" d="M3732.448-4447.688v-6.831h1.361v6.826h6.148v1.363h-6.144v6.832h-1.364v-6.826H3726.3v-1.364Z" transform="translate(-3726.301 4454.52)" fill="#47b9b2"/>
      </g>
    </g>
    <rect id="Rectangle_18079" data-name="Rectangle 18079" width="24.22" height="32.459" transform="translate(34.562 694.029) rotate(-90)" fill="#367575"/>
    <rect id="Rectangle_12960-2" data-name="Rectangle 12960" width="2.076" height="26.879" transform="translate(37.219 698.078) rotate(-90)" fill="#2a6e6a"/>
    <rect id="Rectangle_12959-2" data-name="Rectangle 12959" width="2.836" height="2.616" transform="translate(38.218 693.568) rotate(90)" fill="#2a6e6a"/>
    <rect id="Rectangle_12961-2" data-name="Rectangle 12961" width="2.836" height="2.616" transform="translate(65.854 693.568) rotate(90)" fill="#2a6e6a"/>
    <rect id="Rectangle_12909-2" data-name="Rectangle 12909" width="2.076" height="26.879" transform="translate(64.097 639.848) rotate(90)" fill="#2a6e6a"/>
    <rect id="Rectangle_12918-2" data-name="Rectangle 12918" width="1.616" height="1.616" transform="translate(63.738 695.686) rotate(-90)" fill="#367575"/>
    <rect id="Rectangle_12920-2" data-name="Rectangle 12920" width="3.99" height="25.879" transform="translate(37.857 697.303) rotate(-90)" fill="#367575"/>
    <rect id="Rectangle_12919-2" data-name="Rectangle 12919" width="1.616" height="1.616" transform="translate(36.229 695.686) rotate(-90)" fill="#367575"/>
    <rect id="Rectangle_12907-2" data-name="Rectangle 12907" width="50.49" height="2.616" transform="translate(34.184 693.568) rotate(-90)" fill="#2a6e6a"/>
    <rect id="Rectangle_12958-2" data-name="Rectangle 12958" width="50.49" height="2.616" transform="translate(64.889 693.568) rotate(-90)" fill="#2a6e6a"/>
    <rect id="Rectangle_12956-2" data-name="Rectangle 12956" width="1.836" height="2.616" transform="translate(35.603 643.357) rotate(-90)" fill="#2a6e6a"/>
    <rect id="Rectangle_12957-2" data-name="Rectangle 12957" width="1.836" height="2.616" transform="translate(63.237 643.357) rotate(-90)" fill="#2a6e6a"/>
    <rect id="Rectangle_12915-2" data-name="Rectangle 12915" width="50.49" height="2.476" transform="translate(34.562 694.029) rotate(-90)"/>
    <rect id="Rectangle_18080" data-name="Rectangle 18080" width="24.261" height="4.376" transform="translate(34.562 694.07) rotate(-90)" fill="#367575"/>
    <rect id="Rectangle_12916-2" data-name="Rectangle 12916" width="26.86" height="3.457" transform="translate(39.686 641.924) rotate(90)"/>
    <rect id="Rectangle_12917-2" data-name="Rectangle 12917" width="28.476" height="25.879" transform="translate(63.738 640.309) rotate(90)"/>
    <rect id="Rectangle_12914-2" data-name="Rectangle 12914" width="26.86" height="2.328" transform="translate(65.406 641.924) rotate(90)"/>
    <rect id="Rectangle_12913-2" data-name="Rectangle 12913" width="50.49" height="2.132" transform="translate(64.889 694.029) rotate(-90)"/>
    <g id="Group_843-2" data-name="Group 843" transform="translate(34.186 668.781)">
      <path id="Path_817-2" data-name="Path 817" d="M1620.516-3829.111v.683h-12.253v-.018H1598.04v.021h-10.846v-.683h15v0Z" transform="translate(-1587.194 3829.453)" fill="#2a6e6a"/>
      <path id="Path_814-2" data-name="Path 814" d="M1620.516-3829.111v.683h-12.253v-.018H1598.04v.021h-10.846v-.683h15v0Z" transform="translate(-1587.194 3829.111)" fill="#47b9b2"/>
    </g>
    <g id="Group_849-2" data-name="Group 849" transform="translate(44.35 648.146)">
      <g id="Group_842-2" data-name="Group 842" transform="translate(0.001 33.656)">
        <path id="Path_809-2" data-name="Path 809" d="M1626.85-3799.111v1.364h-5.022v-.037h-4.189v.042h-4.445v-1.364h6.147v0Z" transform="translate(-1612.91 3799.439)" fill="#2a6e6a"/>
        <path id="Path_813-2" data-name="Path 813" d="M1600.85-3829.111v1.364h-5.022v-.037h-4.189v.041h-4.445v-1.364h6.147v0Z" transform="translate(-1587.194 3829.111)" fill="#47b9b2"/>
      </g>
      <g id="Group_841-2" data-name="Group 841" transform="translate(0 0)">
        <path id="Path_816-2" data-name="Path 816" d="M3732.448-4447.488v-7.032h1.361v7.027h6.148v1.4h-6.144v7.032h-1.364v-7.027H3726.3v-1.4Z" transform="translate(-3726.016 4454.521)" fill="#2a6e6a"/>
        <path id="Path_811-2" data-name="Path 811" d="M3732.448-4447.688v-6.831h1.361v6.826h6.148v1.363h-6.144v6.832h-1.364v-6.826H3726.3v-1.364Z" transform="translate(-3726.301 4454.52)" fill="#47b9b2"/>
      </g>
    </g>
    <rect id="Rectangle_18081" data-name="Rectangle 18081" width="24.261" height="3.457" transform="translate(63.736 694.07) rotate(-90)" fill="#367575"/>
  </g>
</svg>
