<svg xmlns="http://www.w3.org/2000/svg" width="259.235" height="191.318" viewBox="0 0 259.235 191.318">
  <g id="Group_3299" data-name="Group 3299" transform="translate(-65.633 -326.591)">
    <g id="Group_838" data-name="Group 838" transform="translate(265.027 354.052)">
      <path id="Path_830" data-name="Path 830" d="M134.714,272.388v4.8H133.9v4.839h-.793v3.228h-4.03v-.821h-2.426v-.8h-3.219v-.793H120.21v-.812H117.8v-.809h-3.228v-.792h-2.41V279.6h-3.2v-1.6h2.379v-.805h3.234v-.8H117.8v-.824h3.228v-.774h3.209v-.821h3.222v-.818h3.222v-.768Z" transform="translate(-108.963 -272.388)" fill="#9e2221"/>
      <g id="Group_643" data-name="Group 643" transform="translate(17.971 24.942)">
        <rect id="Rectangle_13013" data-name="Rectangle 13013" width="5.667" height="0.724" transform="translate(0 3.258)" fill="#9e2221"/>
        <rect id="Rectangle_13014" data-name="Rectangle 13014" width="4.118" height="0.724" transform="translate(0.775 3.982)" fill="#9e2221"/>
        <rect id="Rectangle_13015" data-name="Rectangle 13015" width="2.483" height="0.724" transform="translate(1.592 4.706)" fill="#9e2221"/>
        <rect id="Rectangle_13016" data-name="Rectangle 13016" width="5.667" height="0.724" transform="translate(0 1.448)" fill="#9e2221"/>
        <rect id="Rectangle_13017" data-name="Rectangle 13017" width="5.667" height="1.086" transform="translate(0 2.172)" fill="#9e2221"/>
        <rect id="Rectangle_13018" data-name="Rectangle 13018" width="4.118" height="0.724" transform="translate(0.775 0.724)" fill="#9e2221"/>
        <rect id="Rectangle_13019" data-name="Rectangle 13019" width="2.483" height="0.724" transform="translate(1.592)" fill="#9e2221"/>
      </g>
      <rect id="Rectangle_13020" data-name="Rectangle 13020" width="1.336" height="3.196" transform="translate(22.809 9.668)" fill="#9e2221"/>
      <rect id="Rectangle_13021" data-name="Rectangle 13021" width="1.336" height="3.196" transform="translate(22.141 12.865)" fill="#9e2221"/>
      <rect id="Rectangle_13022" data-name="Rectangle 13022" width="1.336" height="3.196" transform="translate(21.473 16.061)" fill="#9e2221"/>
      <rect id="Rectangle_13023" data-name="Rectangle 13023" width="1.336" height="3.196" transform="translate(20.805 19.257)" fill="#9e2221"/>
      <rect id="Rectangle_13024" data-name="Rectangle 13024" width="1.336" height="3.196" transform="translate(20.137 22.454)" fill="#9e2221"/>
    </g>
    <g id="Group_839" data-name="Group 839" transform="translate(181.361 466.017)">
      <path id="Path_830-2" data-name="Path 830" d="M134.714,272.388v4.8H133.9v4.839h-.793v3.228h-4.03v-.821h-2.426v-.8h-3.219v-.793H120.21v-.812H117.8v-.809h-3.228v-.792h-2.41V279.6h-3.2v-1.6h2.379v-.805h3.234v-.8H117.8v-.824h3.228v-.774h3.209v-.821h3.222v-.818h3.222v-.768Z" transform="translate(-108.963 -272.388)" fill="#9e2221"/>
      <g id="Group_643-2" data-name="Group 643" transform="translate(17.971 24.942)">
        <rect id="Rectangle_13013-2" data-name="Rectangle 13013" width="5.667" height="0.724" transform="translate(0 3.258)" fill="#9e2221"/>
        <rect id="Rectangle_13014-2" data-name="Rectangle 13014" width="4.118" height="0.724" transform="translate(0.775 3.982)" fill="#9e2221"/>
        <rect id="Rectangle_13015-2" data-name="Rectangle 13015" width="2.483" height="0.724" transform="translate(1.592 4.706)" fill="#9e2221"/>
        <rect id="Rectangle_13016-2" data-name="Rectangle 13016" width="5.667" height="0.724" transform="translate(0 1.448)" fill="#9e2221"/>
        <rect id="Rectangle_13017-2" data-name="Rectangle 13017" width="5.667" height="1.086" transform="translate(0 2.172)" fill="#9e2221"/>
        <rect id="Rectangle_13018-2" data-name="Rectangle 13018" width="4.118" height="0.724" transform="translate(0.775 0.724)" fill="#9e2221"/>
        <rect id="Rectangle_13019-2" data-name="Rectangle 13019" width="2.483" height="0.724" transform="translate(1.592)" fill="#9e2221"/>
      </g>
      <rect id="Rectangle_13020-2" data-name="Rectangle 13020" width="1.336" height="3.196" transform="translate(22.809 9.668)" fill="#9e2221"/>
      <rect id="Rectangle_13021-2" data-name="Rectangle 13021" width="1.336" height="3.196" transform="translate(22.141 12.865)" fill="#9e2221"/>
      <rect id="Rectangle_13022-2" data-name="Rectangle 13022" width="1.336" height="3.196" transform="translate(21.473 16.061)" fill="#9e2221"/>
      <rect id="Rectangle_13023-2" data-name="Rectangle 13023" width="1.336" height="3.196" transform="translate(20.805 19.257)" fill="#9e2221"/>
      <rect id="Rectangle_13024-2" data-name="Rectangle 13024" width="1.336" height="3.196" transform="translate(20.137 22.454)" fill="#9e2221"/>
    </g>
    <g id="Group_840" data-name="Group 840" transform="translate(134.371 347.967)">
      <path id="Path_830-3" data-name="Path 830" d="M134.714,272.388v4.8H133.9v4.839h-.793v3.228h-4.03v-.821h-2.426v-.8h-3.219v-.793H120.21v-.812H117.8v-.809h-3.228v-.792h-2.41V279.6h-3.2v-1.6h2.379v-.805h3.234v-.8H117.8v-.824h3.228v-.774h3.209v-.821h3.222v-.818h3.222v-.768Z" transform="translate(-108.963 -272.388)" fill="#9e2221"/>
      <g id="Group_643-3" data-name="Group 643" transform="translate(17.971 24.942)">
        <rect id="Rectangle_13013-3" data-name="Rectangle 13013" width="5.667" height="0.724" transform="translate(0 3.258)" fill="#9e2221"/>
        <rect id="Rectangle_13014-3" data-name="Rectangle 13014" width="4.118" height="0.724" transform="translate(0.775 3.982)" fill="#9e2221"/>
        <rect id="Rectangle_13015-3" data-name="Rectangle 13015" width="2.483" height="0.724" transform="translate(1.592 4.706)" fill="#9e2221"/>
        <rect id="Rectangle_13016-3" data-name="Rectangle 13016" width="5.667" height="0.724" transform="translate(0 1.448)" fill="#9e2221"/>
        <rect id="Rectangle_13017-3" data-name="Rectangle 13017" width="5.667" height="1.086" transform="translate(0 2.172)" fill="#9e2221"/>
        <rect id="Rectangle_13018-3" data-name="Rectangle 13018" width="4.118" height="0.724" transform="translate(0.775 0.724)" fill="#9e2221"/>
        <rect id="Rectangle_13019-3" data-name="Rectangle 13019" width="2.483" height="0.724" transform="translate(1.592)" fill="#9e2221"/>
      </g>
      <rect id="Rectangle_13020-3" data-name="Rectangle 13020" width="1.336" height="3.196" transform="translate(22.809 9.668)" fill="#9e2221"/>
      <rect id="Rectangle_13021-3" data-name="Rectangle 13021" width="1.336" height="3.196" transform="translate(22.141 12.865)" fill="#9e2221"/>
      <rect id="Rectangle_13022-3" data-name="Rectangle 13022" width="1.336" height="3.196" transform="translate(21.473 16.061)" fill="#9e2221"/>
      <rect id="Rectangle_13023-3" data-name="Rectangle 13023" width="1.336" height="3.196" transform="translate(20.805 19.257)" fill="#9e2221"/>
      <rect id="Rectangle_13024-3" data-name="Rectangle 13024" width="1.336" height="3.196" transform="translate(20.137 22.454)" fill="#9e2221"/>
    </g>
    <rect id="Rectangle_57" data-name="Rectangle 57" width="249.615" height="154.964" transform="translate(69.615 358.203)" fill="#47b9b2"/>
    <rect id="Rectangle_13040" data-name="Rectangle 13040" width="241.657" height="3.591" transform="translate(75.754 513.818)" fill="#3d918c" stroke="rgba(0,0,0,0)" stroke-width="1"/>
    <rect id="Rectangle_13041" data-name="Rectangle 13041" width="241.655" height="3.589" transform="translate(74.752 328.241)" fill="#3d918c" stroke="rgba(0,0,0,0)" stroke-width="1"/>
    <rect id="Rectangle_13042" data-name="Rectangle 13042" width="3.982" height="175.954" transform="translate(320.387 334.419)" fill="#3d918c" stroke="rgba(0,0,0,0)" stroke-width="1"/>
    <rect id="Rectangle_13043" data-name="Rectangle 13043" width="3.144" height="3.591" transform="translate(317.242 510.228)" fill="#3d918c" stroke="rgba(0,0,0,0)" stroke-width="1"/>
    <rect id="Rectangle_13044" data-name="Rectangle 13044" width="3.98" height="3.591" transform="translate(316.406 330.829)" fill="#3d918c" stroke="rgba(0,0,0,0)" stroke-width="1"/>
    <rect id="Rectangle_13045" data-name="Rectangle 13045" width="3.982" height="175.954" transform="translate(66.953 335.419)" fill="#3d918c" stroke="rgba(0,0,0,0)" stroke-width="1"/>
    <rect id="Rectangle_13046" data-name="Rectangle 13046" width="3.982" height="3.591" transform="translate(70.936 331.831)" fill="#3d918c" stroke="rgba(0,0,0,0)" stroke-width="1"/>
    <rect id="Rectangle_13047" data-name="Rectangle 13047" width="3.982" height="3.591" transform="translate(70.936 511.227)" fill="#3d918c" stroke="rgba(0,0,0,0)" stroke-width="1"/>
    <rect id="Rectangle_13048" data-name="Rectangle 13048" width="241.657" height="3.591" transform="translate(73.598 513.167)" fill="#231f20"/>
    <rect id="Rectangle_13049" data-name="Rectangle 13049" width="241.655" height="3.59" transform="translate(73.598 326.591)" fill="#231f20"/>
    <rect id="Rectangle_13050" data-name="Rectangle 13050" width="3.982" height="175.954" transform="translate(319.23 333.771)" fill="#231f20"/>
    <rect id="Rectangle_13051" data-name="Rectangle 13051" width="3.98" height="3.591" transform="translate(315.252 509.577)" fill="#231f20"/>
    <rect id="Rectangle_13052" data-name="Rectangle 13052" width="3.98" height="3.591" transform="translate(315.252 330.181)" fill="#231f20"/>
    <rect id="Rectangle_13053" data-name="Rectangle 13053" width="3.982" height="175.954" transform="translate(65.633 333.771)" fill="#231f20"/>
    <rect id="Rectangle_13054" data-name="Rectangle 13054" width="3.982" height="3.591" transform="translate(69.615 330.181)" fill="#231f20"/>
    <rect id="Rectangle_13055" data-name="Rectangle 13055" width="3.982" height="3.591" transform="translate(69.615 509.577)" fill="#231f20"/>
    <rect id="Rectangle_13056" data-name="Rectangle 13056" width="249.615" height="32.178" transform="translate(69.615 330.036)" fill="#231f20" stroke="rgba(0,0,0,0)" stroke-width="1"/>
    <text id="Subject_Line" data-name="Subject Line" transform="translate(251 348.499)" fill="#47b9b2" font-size="22" font-family="Palm-OS, Palm OS"><tspan x="0" y="0">Close</tspan></text>
    <text id="Subject_Line-2" data-name="Subject Line" transform="translate(297 348.499)" fill="#47b9b2" font-size="22" font-family="Palm-OS, Palm OS"><tspan x="0" y="0">x</tspan></text>
  </g>
</svg>
