<svg xmlns="http://www.w3.org/2000/svg" width="33.324" height="58.23" viewBox="0 0 33.324 58.23">
  <g id="Group_3298" data-name="Group 3298" transform="translate(-34.184 -639.848)">
    <rect id="Rectangle_12960" data-name="Rectangle 12960" width="2.076" height="26.879" transform="translate(37.219 698.078) rotate(-90)" fill="#2a6e6a"/>
    <rect id="Rectangle_12959" data-name="Rectangle 12959" width="2.836" height="2.616" transform="translate(38.217 693.568) rotate(90)" fill="#2a6e6a"/>
    <rect id="Rectangle_12961" data-name="Rectangle 12961" width="2.836" height="2.616" transform="translate(65.854 693.568) rotate(90)" fill="#2a6e6a"/>
    <rect id="Rectangle_12955" data-name="Rectangle 12955" width="53.764" height="29.228" transform="translate(36.176 695.688) rotate(-90)"/>
    <rect id="Rectangle_18083" data-name="Rectangle 18083" width="28.497" height="29.228" transform="translate(36.176 668.805) rotate(-90)" fill="#367575"/>
    <rect id="Rectangle_12909" data-name="Rectangle 12909" width="2.076" height="26.879" transform="translate(64.098 639.848) rotate(90)" fill="#2a6e6a"/>
    <rect id="Rectangle_12918" data-name="Rectangle 12918" width="1.616" height="1.616" transform="translate(63.738 695.686) rotate(-90)"/>
    <rect id="Rectangle_12920" data-name="Rectangle 12920" width="2.425" height="25.879" transform="translate(37.857 697.303) rotate(-90)"/>
    <rect id="Rectangle_12919" data-name="Rectangle 12919" width="1.616" height="1.616" transform="translate(36.23 695.686) rotate(-90)"/>
    <rect id="Rectangle_12907" data-name="Rectangle 12907" width="50.49" height="2.616" transform="translate(34.184 693.568) rotate(-90)" fill="#2a6e6a"/>
    <rect id="Rectangle_12958" data-name="Rectangle 12958" width="50.49" height="2.616" transform="translate(64.889 693.568) rotate(-90)" fill="#2a6e6a"/>
    <rect id="Rectangle_12956" data-name="Rectangle 12956" width="1.836" height="2.616" transform="translate(35.604 643.357) rotate(-90)" fill="#2a6e6a"/>
    <rect id="Rectangle_12957" data-name="Rectangle 12957" width="1.836" height="2.616" transform="translate(63.236 643.357) rotate(-90)" fill="#2a6e6a"/>
    <rect id="Rectangle_12915" data-name="Rectangle 12915" width="24.22" height="2.476" transform="translate(34.563 694.029) rotate(-90)"/>
    <rect id="Rectangle_12916" data-name="Rectangle 12916" width="1.616" height="3.457" transform="translate(39.686 641.924) rotate(90)" fill="#367575"/>
    <rect id="Rectangle_12917" data-name="Rectangle 12917" width="2.423" height="25.879" transform="translate(63.738 640.309) rotate(90)" fill="#367575"/>
    <rect id="Rectangle_12914" data-name="Rectangle 12914" width="1.616" height="2.328" transform="translate(65.406 641.924) rotate(90)" fill="#367575"/>
    <rect id="Rectangle_12913" data-name="Rectangle 12913" width="24.22" height="2.132" transform="translate(64.889 694.029) rotate(-90)"/>
    <g id="Group_843" data-name="Group 843" transform="translate(34.186 668.781)">
      <path id="Path_817" data-name="Path 817" d="M1620.516-3829.111v.683h-12.253v-.018H1598.04v.021h-10.846v-.683h15v0Z" transform="translate(-1587.194 3829.453)" fill="#2a6e6a"/>
      <path id="Path_814" data-name="Path 814" d="M1620.516-3829.111v.683h-12.253v-.018H1598.04v.021h-10.846v-.683h15v0Z" transform="translate(-1587.194 3829.111)" fill="#47b9b2"/>
    </g>
    <g id="Group_849" data-name="Group 849" transform="translate(44.35 648.146)">
      <g id="Group_842" data-name="Group 842" transform="translate(0.001 33.656)">
        <path id="Path_809" data-name="Path 809" d="M1626.85-3799.111v1.364h-5.022v-.037h-4.189v.042h-4.445v-1.364h6.147v0Z" transform="translate(-1612.91 3799.439)" fill="#2a6e6a"/>
        <path id="Path_813" data-name="Path 813" d="M1600.85-3829.111v1.364h-5.022v-.037h-4.189v.041h-4.445v-1.364h6.147v0Z" transform="translate(-1587.194 3829.111)" fill="#47b9b2"/>
      </g>
      <g id="Group_841" data-name="Group 841" transform="translate(0 0)">
        <path id="Path_816" data-name="Path 816" d="M3732.448-4447.488v-7.032h1.361v7.027h6.148v1.4h-6.144v7.032h-1.364v-7.027H3726.3v-1.4Z" transform="translate(-3726.016 4454.521)" fill="#2a6e6a"/>
        <path id="Path_811" data-name="Path 811" d="M3732.448-4447.688v-6.831h1.361v6.826h6.148v1.363h-6.144v6.832h-1.364v-6.826H3726.3v-1.364Z" transform="translate(-3726.301 4454.52)" fill="#47b9b2"/>
      </g>
    </g>
    <rect id="Rectangle_18084" data-name="Rectangle 18084" width="25.266" height="4.476" transform="translate(34.563 668.805) rotate(-90)" fill="#367575"/>
    <rect id="Rectangle_18085" data-name="Rectangle 18085" width="25.266" height="2.476" transform="translate(64.547 668.805) rotate(-90)" fill="#367575"/>
  </g>
</svg>
